<?xml version="1.0" encoding="UTF-8"?>
<svg width="1200pt" height="1200pt" version="1.1" viewBox="0 0 1200 1200" xmlns="http://www.w3.org/2000/svg">
 <path d="m329.53 270c-15.188 0-30.422 5.8125-42.047 17.484-23.297 23.297-23.297 60.844 0 84.141l228.37 228.37-228.37 228.42c-23.297 23.297-23.297 60.797 0 84.094s60.844 23.297 84.141 0l228.37-228.37 228.37 228.37c23.297 23.297 60.844 23.297 84.141 0 23.297-23.297 23.297-60.797 0-84.094l-228.37-228.42 228.37-228.37c23.297-23.297 23.297-60.844 0-84.141-23.297-23.297-60.844-23.297-84.141 0l-228.37 228.37-228.37-228.37c-11.672-11.672-26.859-17.484-42.047-17.484z"/>
</svg>
