<?xml version="1.0" encoding="UTF-8"?>
<svg width="1200pt" height="1200pt" version="1.1" viewBox="0 0 1200 1200" xmlns="http://www.w3.org/2000/svg">
 <path d="m882.28 335.68c-12.188 0-24.375 4.6406-33.703 14.016l-399.61 399.61-97.688-97.688h0.046874c-8.9531-8.9531-21.094-13.969-33.703-13.969-12.656 0-24.75 5.0156-33.703 13.969-18.609 18.609-18.609 48.75 0 67.359l131.39 131.39c3.5156 3.5156 7.4062 6.3281 11.531 8.5312 1.3125 0.70312 2.8125 1.4062 4.2188 1.9688 2.8594 1.1719 5.8125 2.0156 8.8125 2.625 2.25 0.42188 4.5469 0.70312 6.7969 0.84375 1.5 0.046875 3.0469 0.046875 4.5938 0 2.2969-0.09375 4.5469-0.375 6.7969-0.84375 2.25-0.42188 4.4531-1.0312 6.6562-1.8281 0.75-0.28125 1.5-0.51562 2.1562-0.79688 5.7188-2.3438 11.109-5.8594 15.797-10.5l433.26-433.26c18.656-18.656 18.656-48.703 0-67.406-9.3281-9.3281-21.516-14.016-33.703-14.016z"/>
</svg>
