<?xml version="1.0" encoding="UTF-8"?>
<svg width="1200pt" height="1200pt" version="1.1" viewBox="0 0 1200 1200" xmlns="http://www.w3.org/2000/svg">
 <path d="m56.25 1162.5h112.5c4.9727 0 9.7422-1.9766 13.258-5.4922 3.5156-3.5156 5.4922-8.2852 5.4922-13.258v-150c0-4.9727 1.9766-9.7422 5.4922-13.258 3.5156-3.5156 8.2852-5.4922 13.258-5.4922h56.25c19.047-0.058594 37.328 7.5078 50.758 21.02 23 23.129 50.363 41.465 80.5 53.949 30.137 12.484 62.453 18.867 95.074 18.781h158.04c62.141-0.070312 121.71-24.785 165.65-68.723 43.938-43.941 68.652-103.51 68.723-165.65 0.070312-39.809-11.676-78.742-33.758-111.87-22.082-33.121-53.5-58.941-90.273-74.188-29.934-12.41-55.508-33.43-73.484-60.391-17.977-26.961-27.543-58.652-27.484-91.055v-170.36l18.75 18.75v50.363c-0.0625 57.223 19.043 112.82 54.262 157.92 35.223 45.102 84.531 77.105 140.06 90.914l171.73 42.938c7.543 1.9023 15.289 2.8633 23.062 2.8672 25.621-0.11719 50.074-10.703 67.695-29.297 17.621-18.598 26.871-43.59 25.605-69.176-8.9219-181-84.891-352.2-213.11-480.27l-23.453-23.398c-26.18-26.254-61.496-41.375-98.562-42.203-37.066-0.82812-73.02 12.699-100.35 37.762-27.324 25.059-43.91 59.711-46.285 96.711l-19.406-19.406v-104.74c0-4.9727-1.9766-9.7422-5.4922-13.258-3.5156-3.5156-8.2852-5.4922-13.258-5.4922h-75c-4.9727 0-9.7422 1.9766-13.258 5.4922-3.5156 3.5156-5.4922 8.2852-5.4922 13.258v104.74l-19.406 19.406c-2.375-37-18.961-71.652-46.285-96.711-27.328-25.062-63.281-38.59-100.35-37.762-37.066 0.82812-72.383 15.949-98.562 42.203l-23.457 23.438h0.003906c-128.21 128.05-204.18 299.24-213.11 480.23-1.2656 25.586 7.9844 50.578 25.605 69.176 17.621 18.594 42.074 29.18 67.695 29.297 7.7734-0.003907 15.52-0.96484 23.062-2.8672l171.73-42.938c55.531-13.809 104.84-45.812 140.06-90.914 35.219-45.098 54.324-100.7 54.262-157.92v-50.363l18.75-18.75v293.18c0.003906 36.039-9.4805 71.449-27.5 102.66-18.02 31.211-43.941 57.133-75.152 75.152-31.211 18.02-66.621 27.504-102.66 27.5h-169.69c-34.797 0.039062-68.16 13.879-92.766 38.484s-38.445 57.969-38.484 92.766v187.5c0 4.9727 1.9766 9.7422 5.4922 13.258 3.5156 3.5156 8.2852 5.4922 13.258 5.4922zm656.25-972.58c-0.035156-28.27 11.176-55.395 31.16-75.395 19.984-19.996 47.102-31.227 75.375-31.211 28.27 0.011719 55.375 11.27 75.34 31.289l23.457 23.438c121.64 121.49 193.71 283.91 202.18 455.62 0.89453 17.793-6.6953 34.961-20.461 46.277-13.766 11.312-32.078 15.438-49.363 11.113l-171.71-42.938c-47.43-11.785-89.543-39.117-119.62-77.629-30.082-38.516-46.398-85.992-46.352-134.86zm-225 205.71c0.054688 48.867-16.254 96.344-46.324 134.86-30.074 38.516-72.176 65.855-119.59 77.652l-171.73 42.938c-17.289 4.3242-35.602 0.19922-49.367-11.113-13.762-11.316-21.355-28.484-20.461-46.281 8.4727-171.71 80.543-334.13 202.18-455.62l23.418-23.453c19.969-20.008 47.07-31.254 75.336-31.262 28.266-0.011719 55.379 11.215 75.359 31.207 19.984 19.992 31.199 47.105 31.18 75.371zm-412.5 560.62c0.03125-24.855 9.918-48.684 27.492-66.258 17.574-17.574 41.402-27.461 66.258-27.492h169.69c42.621 0 84.492-11.219 121.41-32.531s67.562-51.961 88.875-88.875 32.531-78.785 32.531-121.41v-338.44c0-4.9727-1.9766-9.7383-5.4922-13.254-3.5156-3.5156-8.2852-5.4922-13.258-5.4922s-9.7383 1.9766-13.258 5.4883l-24.242 24.246v-59.477l50.758-50.758v0.003906c3.5156-3.5156 5.4922-8.2852 5.4922-13.258v-93.75h37.5v93.75c0 4.9727 1.9766 9.7422 5.4922 13.258l50.758 50.754v59.477l-24.242-24.242v-0.003906c-3.5195-3.5117-8.2852-5.4883-13.258-5.4883s-9.7422 1.9766-13.258 5.4922c-3.5156 3.5156-5.4922 8.2812-5.4922 13.254v215.62c-0.070312 39.809 11.676 78.742 33.758 111.87 22.082 33.121 53.5 58.941 90.273 74.188 29.934 12.41 55.508 33.43 73.484 60.391 17.977 26.961 27.543 58.652 27.484 91.055-0.058594 52.195-20.82 102.24-57.73 139.14-36.906 36.91-86.949 57.672-139.14 57.73h-158.04c-27.695 0.070312-55.129-5.3477-80.715-15.945-25.586-10.598-48.816-26.164-68.348-45.797-20.445-20.566-48.27-32.094-77.27-32.008h-56.25c-14.918 0-29.227 5.9258-39.773 16.477-10.551 10.547-16.477 24.855-16.477 39.773v131.25h-75z"  fill="currentColor"/>
</svg>
