<?xml version="1.0" encoding="UTF-8"?>
<svg width="1200pt" height="1200pt" version="1.1" viewBox="0 0 1200 1200" xmlns="http://www.w3.org/2000/svg">
 <path d="m185.62 918.28c-17.219 34.438-22.145 73.73-13.957 111.35 8.1875 37.625 28.996 71.316 58.969 95.484 29.973 24.168 67.309 37.359 105.81 37.383h527.1c38.512-0.003906 75.867-13.18 105.86-37.344 29.988-24.164 50.812-57.859 59.008-95.492 8.1992-37.633 3.2734-76.934-13.949-111.38l-283.22-566.46v-205.03c16.828-5.9375 29.836-19.508 35.062-36.566 5.2266-17.062 2.0469-35.59-8.5664-49.934-10.613-14.344-27.402-22.801-45.246-22.793h-225c-17.844-0.007812-34.633 8.4492-45.246 22.793-10.613 14.344-13.793 32.871-8.5664 49.934 5.2266 17.059 18.234 30.629 35.062 36.566v205.03zm301.88-805.78c-6.6992 0-12.887-3.5742-16.238-9.375-3.3477-5.8008-3.3477-12.949 0-18.75 3.3516-5.8008 9.5391-9.375 16.238-9.375h225c6.6992 0 12.887 3.5742 16.238 9.375 3.3477 5.8008 3.3477 12.949 0 18.75-3.3516 5.8008-9.5391 9.375-16.238 9.375-4.9727 0-9.7422 1.9766-13.258 5.4922-3.5156 3.5156-5.4922 8.2852-5.4922 13.258v225c-0.03125 2.9023 0.60938 5.7695 1.875 8.3828l285.3 570.43c20.336 40.684 18.16 88.992-5.7461 127.68-23.91 38.691-66.148 62.246-111.63 62.254h-527.1c-45.48-0.007812-87.719-23.562-111.63-62.254-23.906-38.691-26.082-87-5.7461-127.68l285.3-570.43c1.2656-2.6133 1.9062-5.4805 1.875-8.3828v-225c0-4.9727-1.9766-9.7422-5.4922-13.258-3.5156-3.5156-8.2852-5.4922-13.258-5.4922z"  fill="currentColor"/>
 <path d="m590.62 1031.2c17.406 0 34.098-6.9141 46.402-19.223 12.309-12.305 19.223-28.996 19.223-46.402s-6.9141-34.098-19.223-46.402c-12.305-12.309-28.996-19.223-46.402-19.223s-34.098 6.9141-46.402 19.223c-12.309 12.305-19.223 28.996-19.223 46.402s6.9141 34.098 19.223 46.402c12.305 12.309 28.996 19.223 46.402 19.223zm0-93.75c7.4609 0 14.613 2.9648 19.887 8.2383 5.2734 5.2734 8.2383 12.426 8.2383 19.887s-2.9648 14.613-8.2383 19.887c-5.2734 5.2734-12.426 8.2383-19.887 8.2383s-14.613-2.9648-19.887-8.2383c-5.2734-5.2734-8.2383-12.426-8.2383-19.887s2.9648-14.613 8.2383-19.887c5.2734-5.2734 12.426-8.2383 19.887-8.2383z"  fill="currentColor"/>
 <path d="m459.38 918.75c17.406 0 34.098-6.9141 46.402-19.223 12.309-12.305 19.223-28.996 19.223-46.402s-6.9141-34.098-19.223-46.402c-12.305-12.309-28.996-19.223-46.402-19.223s-34.098 6.9141-46.402 19.223c-12.309 12.305-19.223 28.996-19.223 46.402s6.9141 34.098 19.223 46.402c12.305 12.309 28.996 19.223 46.402 19.223zm0-93.75c7.4609 0 14.613 2.9648 19.887 8.2383 5.2734 5.2734 8.2383 12.426 8.2383 19.887s-2.9648 14.613-8.2383 19.887c-5.2734 5.2734-12.426 8.2383-19.887 8.2383s-14.613-2.9648-19.887-8.2383c-5.2734-5.2734-8.2383-12.426-8.2383-19.887s2.9648-14.613 8.2383-19.887c5.2734-5.2734 12.426-8.2383 19.887-8.2383z"  fill="currentColor"/>
 <path d="m703.12 900c22.379 0 43.84-8.8906 59.664-24.711 15.82-15.824 24.711-37.285 24.711-59.664s-8.8906-43.84-24.711-59.664c-15.824-15.82-37.285-24.711-59.664-24.711s-43.84 8.8906-59.664 24.711c-15.82 15.824-24.711 37.285-24.711 59.664 0.023438 22.371 8.9219 43.816 24.742 59.633 15.816 15.82 37.262 24.719 59.633 24.742zm0-131.25c12.434 0 24.355 4.9375 33.145 13.73 8.793 8.7891 13.73 20.711 13.73 33.145s-4.9375 24.355-13.73 33.145c-8.7891 8.793-20.711 13.73-33.145 13.73s-24.355-4.9375-33.145-13.73c-8.793-8.7891-13.73-20.711-13.73-33.145s4.9375-24.355 13.73-33.145c8.7891-8.793 20.711-13.73 33.145-13.73z" fill="currentColor"/>
 <path d="m395.72 685.37-133.22 266.46c-14.531 29.062-12.977 63.574 4.1055 91.211 17.078 27.641 47.254 44.465 79.746 44.465h507.3c32.492 0 62.668-16.824 79.746-44.465 17.082-27.637 18.637-62.148 4.1055-91.211l-133.12-266.46c-1.5664-3.1289-3.9727-5.7617-6.957-7.5938-2.9805-1.832-6.418-2.793-9.918-2.7734h-375c-3.4844 0-6.8984 0.96875-9.8633 2.8008-2.9648 1.8281-5.3594 4.4492-6.918 7.5664zm380.2 27.133 128.04 256.09c8.7188 17.438 7.7891 38.148-2.457 54.73-10.25 16.586-28.355 26.684-47.852 26.684h-507.3c-19.496 0-37.602-10.098-47.852-26.684-10.246-16.582-11.176-37.293-2.457-54.73l128.04-256.09z" fill="currentColor"/>
 <path d="m562.5 262.5h75c6.6992 0 12.887-3.5742 16.238-9.375 3.3477-5.8008 3.3477-12.949 0-18.75-3.3516-5.8008-9.5391-9.375-16.238-9.375h-75c-6.6992 0-12.887 3.5742-16.238 9.375-3.3477 5.8008-3.3477 12.949 0 18.75 3.3516 5.8008 9.5391 9.375 16.238 9.375z" fill="currentColor"/>
 <path d="m562.5 337.5h75c6.6992 0 12.887-3.5742 16.238-9.375 3.3477-5.8008 3.3477-12.949 0-18.75-3.3516-5.8008-9.5391-9.375-16.238-9.375h-75c-6.6992 0-12.887 3.5742-16.238 9.375-3.3477 5.8008-3.3477 12.949 0 18.75 3.3516 5.8008 9.5391 9.375 16.238 9.375z" fill="currentColor"/>
 <path d="m562.5 412.5h75c6.6992 0 12.887-3.5742 16.238-9.375 3.3477-5.8008 3.3477-12.949 0-18.75-3.3516-5.8008-9.5391-9.375-16.238-9.375h-75c-6.6992 0-12.887 3.5742-16.238 9.375-3.3477 5.8008-3.3477 12.949 0 18.75 3.3516 5.8008 9.5391 9.375 16.238 9.375z" fill="currentColor"/>
 <path d="m562.5 487.5h75c6.6992 0 12.887-3.5742 16.238-9.375 3.3477-5.8008 3.3477-12.949 0-18.75-3.3516-5.8008-9.5391-9.375-16.238-9.375h-75c-6.6992 0-12.887 3.5742-16.238 9.375-3.3477 5.8008-3.3477 12.949 0 18.75 3.3516 5.8008 9.5391 9.375 16.238 9.375z" fill="currentColor"/>
 <path d="m562.5 562.5h75c6.6992 0 12.887-3.5742 16.238-9.375 3.3477-5.8008 3.3477-12.949 0-18.75-3.3516-5.8008-9.5391-9.375-16.238-9.375h-75c-6.6992 0-12.887 3.5742-16.238 9.375-3.3477 5.8008-3.3477 12.949 0 18.75 3.3516 5.8008 9.5391 9.375 16.238 9.375z" fill="currentColor"/>
 <path d="m562.5 637.5h75c6.6992 0 12.887-3.5742 16.238-9.375 3.3477-5.8008 3.3477-12.949 0-18.75-3.3516-5.8008-9.5391-9.375-16.238-9.375h-75c-6.6992 0-12.887 3.5742-16.238 9.375-3.3477 5.8008-3.3477 12.949 0 18.75 3.3516 5.8008 9.5391 9.375 16.238 9.375z" fill="currentColor"/>
</svg>
