<?xml version="1.0" encoding="UTF-8"?>
<svg width="1200pt" height="1200pt" version="1.1" viewBox="0 0 1200 1200" xmlns="http://www.w3.org/2000/svg">
 <path d="m1143.8 900h-56.25v-40.707c16.828-5.9375 29.836-19.508 35.062-36.566 5.2266-17.062 2.0469-35.59-8.5664-49.934-10.613-14.344-27.402-22.801-45.246-22.793h-150c-17.844-0.007812-34.633 8.4492-45.246 22.793-10.613 14.344-13.793 32.871-8.5664 49.934 5.2266 17.059 18.234 30.629 35.062 36.566v40.707h-56.25c-4.9727 0-9.7422 1.9766-13.258 5.4922-3.5156 3.5156-5.4922 8.2852-5.4922 13.258v225c0 4.9727 1.9766 9.7422 5.4922 13.258 3.5156 3.5156 8.2852 5.4922 13.258 5.4922h300c4.9727 0 9.7422-1.9766 13.258-5.4922 3.5156-3.5156 5.4922-8.2852 5.4922-13.258v-225c0-4.9727-1.9766-9.7422-5.4922-13.258-3.5156-3.5156-8.2852-5.4922-13.258-5.4922zm-281.25 37.5h56.25c4.9727 0 9.7422-1.9766 13.258-5.4922 3.5156-3.5156 5.4922-8.2852 5.4922-13.258v-75c0-4.9727-1.9766-9.7422-5.4922-13.258-3.5156-3.5156-8.2852-5.4922-13.258-5.4922-6.6992 0-12.887-3.5742-16.238-9.375-3.3477-5.8008-3.3477-12.949 0-18.75 3.3516-5.8008 9.5391-9.375 16.238-9.375h150c6.6992 0 12.887 3.5742 16.238 9.375 3.3477 5.8008 3.3477 12.949 0 18.75-3.3516 5.8008-9.5391 9.375-16.238 9.375-4.9727 0-9.7422 1.9766-13.258 5.4922-3.5156 3.5156-5.4922 8.2852-5.4922 13.258v75c0 4.9727 1.9766 9.7422 5.4922 13.258 3.5156 3.5156 8.2852 5.4922 13.258 5.4922h56.25v75h-262.5zm0 187.5v-75h262.5v75z"/>
 <path d="m759.51 162.36c-5.7305-3.3672-12.812-3.4531-18.621-0.22266-87.266 48.523-165.2 112.2-230.14 188.04-2.9062 3.3945-4.5 7.7188-4.5 12.188v213.26l-43.125-110.34c-1.707-4.3711-4.9922-7.9414-9.207-10.008-4.2148-2.0703-9.0508-2.4805-13.551-1.1523-4.5039 1.3242-8.3438 4.2891-10.766 8.3086-42.531 70.418-74.496 146.69-94.875 226.39l-51.602 201.56-240.13 240.11c-3.6172 3.4961-5.6797 8.2969-5.7227 13.324-0.042969 5.0312 1.9375 9.8672 5.4922 13.422 3.5547 3.5547 8.3906 5.5352 13.422 5.4922 5.0273-0.042969 9.8281-2.1055 13.324-5.7227l240-240 183.62-42.676c133.65-31.211 257.67-94.547 361.31-184.52 3.3711-2.9336 5.5859-6.9727 6.2422-11.395s-0.28906-8.9297-2.6641-12.719c-2.375-3.7852-6.0234-6.5977-10.289-7.9297l-124.84-39.02h195.68c5.375-0.003906 10.488-2.3086 14.043-6.3359 67.312-76.047 120.27-163.67 156.3-258.62 2.0703-5.4531 1.4844-11.559-1.582-16.52-3.0703-4.9609-8.2695-8.2109-14.074-8.793l-28.461-2.8516 56.137-26.25v0.003906c4.9102-2.2969 8.5898-6.6016 10.086-11.812 19.547-67.738 30.508-137.66 32.625-208.12l0.11328-3.9219v-0.28125c-0.03125-1.9648-0.37109-3.9141-1.0117-5.7734-0.14844-0.48828-0.11328-0.99219-0.30078-1.4609-0.92188-2.3555-2.3281-4.4883-4.125-6.2656-0.09375 0-0.22656-0.11328-0.30078-0.20703v0.003906c-3.5195-3.3945-8.2344-5.2656-13.125-5.2148l-0.44922-0.074219c-101.42 3.0312-201.45 24.473-295.2 63.281-5.3555 2.1953-9.3906 6.7539-10.914 12.336l-49.574 179.66v-133.01c0-6.6445-3.5156-12.793-9.2422-16.164zm-28.258 48.809v231.07l-187.5 187.5v-260.36c54.023-62.031 117.26-115.39 187.5-158.21zm-360.26 486.95c16.289-63.578 40.309-124.92 71.512-182.66l60.617 154.97-167.95 167.95zm432.7-14.832-0.003906 0.003906c-93.578 74.535-202.57 127.32-319.07 154.54l-124.99 29.062 245.62-245.62zm273.6-414.2-110.21 51.43c-5.0547 2.3008-8.832 6.7227-10.309 12.078-1.4766 5.3516-0.50781 11.086 2.6523 15.652 3.1602 4.5703 8.1797 7.5 13.711 8.0078l71.645 7.1641c-32.938 79.363-78.426 152.92-134.72 217.84h-264.79l458.01-458.01c-4.168 49.309-12.867 98.129-25.988 145.84zm-225.28-118.33c71.895-28.781 147.59-46.965 224.72-53.98l-289.76 289.76z"/>
</svg>
