<?xml version="1.0" encoding="UTF-8"?>
<svg width="1200pt" height="1200pt" version="1.1" viewBox="0 0 1200 1200" xmlns="http://www.w3.org/2000/svg">
 <path d="m412.5 431.25c0-19.891-7.9023-38.969-21.969-53.031-14.062-14.066-33.141-21.969-53.031-21.969s-38.969 7.9023-53.031 21.969c-14.066 14.062-21.969 33.141-21.969 53.031s7.9023 38.969 21.969 53.031c14.062 14.066 33.141 21.969 53.031 21.969s38.969-7.9023 53.031-21.969c14.066-14.062 21.969-33.141 21.969-53.031zm-112.5 0c0-9.9453 3.9492-19.484 10.984-26.516 7.0312-7.0352 16.57-10.984 26.516-10.984s19.484 3.9492 26.516 10.984c7.0352 7.0312 10.984 16.57 10.984 26.516s-3.9492 19.484-10.984 26.516c-7.0312 7.0352-16.57 10.984-26.516 10.984s-19.484-3.9492-26.516-10.984c-7.0352-7.0312-10.984-16.57-10.984-26.516z"/>
 <path d="m600 768.75h-262.5c-4.9727 0-9.7422 1.9766-13.258 5.4922-3.5156 3.5156-5.4922 8.2852-5.4922 13.258v56.25c0 53.59 28.59 103.11 75 129.9 46.41 26.797 103.59 26.797 150 0 46.41-26.793 75-76.312 75-129.9v-56.25c0-4.9727-1.9766-9.7422-5.4922-13.258-3.5156-3.5156-8.2852-5.4922-13.258-5.4922zm-18.75 75c0 40.191-21.441 77.332-56.25 97.43-34.809 20.094-77.691 20.094-112.5 0-34.809-20.098-56.25-57.238-56.25-97.43v-37.5h225z"/>
 <path d="m562.5 675v-112.5h-37.5v93.75h-56.25v37.5h75c4.9727 0 9.7422-1.9766 13.258-5.4922 3.5156-3.5156 5.4922-8.2852 5.4922-13.258z"/>
 <path d="m975 375h-187.5c-6.5156-0.035156-12.582 3.3125-16.023 8.8477-3.4414 5.5312-3.7656 12.453-0.85156 18.285l12.355 24.695v-0.003906c12.215 24.434 33.105 43.434 58.582 53.285 25.477 9.8555 53.711 9.8555 79.188 0 25.477-9.8516 46.367-28.852 58.582-53.285l12.355-24.695v0.003906c2.8984-5.8008 2.5938-12.684-0.80078-18.207-3.3984-5.5195-9.4062-8.8945-15.887-8.9258zm-93.75 75c-12.961 0.042969-25.691-3.418-36.848-10.02-11.152-6.6016-20.312-16.098-26.508-27.48h126.71c-6.1953 11.383-15.355 20.879-26.508 27.48-11.156 6.6016-23.887 10.062-36.848 10.02z"/>
 <path d="m131.25 56.25h37.5v75h-37.5z"/>
 <path d="m206.25 56.25h37.5v75h-37.5z"/>
 <path d="m281.25 56.25h37.5v75h-37.5z"/>
 <path d="m356.25 56.25h37.5v75h-37.5z"/>
 <path d="m431.25 56.25h37.5v75h-37.5z"/>
 <path d="m506.25 56.25h37.5v75h-37.5z"/>
 <path d="m581.25 56.25h37.5v75h-37.5z"/>
 <path d="m656.25 56.25h37.5v75h-37.5z"/>
 <path d="m881.25 56.25h37.5v75h-37.5z"/>
 <path d="m993.75 192.49v-136.24h-37.5v111.75c-35.086-20.359-73-35.398-112.5-44.625v-67.125h-37.5v60.188c-12.336-1.6875-24.844-2.8867-37.5-3.4688v-56.719h-37.5v58.125c-21.16 4.3516-40.176 15.867-53.836 32.602-13.664 16.734-21.137 37.668-21.164 59.273v37.5h-562.5v-187.5h-37.5v581.25c-0.18359 97.645 30.184 192.9 86.852 272.42 56.668 79.52 136.8 139.32 229.15 171.02 92.355 31.695 192.32 33.703 285.87 5.7422 4.1562 21.328 15.59 40.551 32.348 54.379 16.758 13.832 37.801 21.41 59.527 21.445 81.551 0.14844 161.31-23.938 229.14-69.199 67.84-45.258 120.7-109.66 151.88-185.01 2.5195-6.0703 1.6758-13.02-2.2227-18.309-3.8984-5.293-10.285-8.1562-16.828-7.5508-45.961 4.2812-90.109 20.051-128.38 45.863 9.4922-24.848 26.301-46.23 48.199-61.324 21.902-15.094 47.867-23.191 74.465-23.219h30.355c4.3633 0.003906 8.5898-1.5117 11.953-4.2852 3.3633-2.7773 5.6562-6.6367 6.4805-10.922 4.9648-25.887 7.4648-52.184 7.4609-78.543v-225c-0.011719-64.789-15.297-128.66-44.617-186.43-29.32-57.773-71.848-107.82-124.13-146.08zm-900 445.01v-356.25h562.5v766.88c-86.508 27.84-179.61 27.594-265.97-0.69922s-161.55-83.188-214.82-156.82c-53.262-73.633-81.867-162.23-81.711-253.11zm1031.2 112.5c0.003906 18.828-1.3984 37.629-4.1992 56.25h-14.551c-44.738 0.054688-87.629 17.852-119.27 49.484-31.633 31.637-49.43 74.527-49.484 119.27 0 4.9727 1.9766 9.7383 5.4922 13.254 3.5156 3.5156 8.2852 5.4922 13.258 5.4922s9.7383-1.9766 13.258-5.4883c30.883-30.836 69.652-52.578 112.07-62.852-31.809 60.344-79.52 110.84-137.96 146.02-58.441 35.18-125.39 53.707-193.61 53.574-14.918 0-29.227-5.9258-39.773-16.477-10.551-10.547-16.477-24.855-16.477-39.773v-862.5c0-14.918 5.9258-29.227 16.477-39.773 10.547-10.551 24.855-16.477 39.773-16.477 99.422 0.11328 194.74 39.66 265.04 109.96 70.301 70.301 109.85 165.62 109.96 265.04z"/>
</svg>
