<?xml version="1.0" encoding="UTF-8"?>
<svg width="1200pt" height="1200pt" version="1.1" viewBox="0 0 1200 1200" xmlns="http://www.w3.org/2000/svg">
 <path d="m225 787.5c-0.12891 98.402 38.426 192.91 107.35 263.14 68.922 70.23 162.69 110.56 261.07 112.29 98.387 1.7266 193.51-35.289 264.85-103.06 71.344-67.77 113.19-160.87 116.51-259.21 3.3242-98.344-32.141-194.05-98.746-266.49-66.605-72.434-159.01-115.79-257.29-120.71v-49.445l55.086-55.086c24.145 18.523 53.723 28.566 84.152 28.574 33.477-0.14062 65.797-12.281 91.09-34.215 25.293-21.938 41.883-52.211 46.758-85.336l22.727-159.04c0.83984-5.8477-1.125-11.75-5.3008-15.926s-10.078-6.1406-15.926-5.3008l-159.04 22.727c-33.125 4.875-63.398 21.465-85.336 46.758-21.934 25.293-34.074 57.613-34.215 91.09 0.007812 30.43 10.051 60.008 28.574 84.152l-60.582 60.582v-0.003906c-3.5156 3.5156-5.4922 8.2852-5.4922 13.258v10.988l-28.574-28.574c18.523-24.145 28.566-53.723 28.574-84.152-0.14062-33.477-12.281-65.797-34.215-91.09-21.938-25.293-52.211-41.883-85.336-46.758l-159.04-22.727c-5.8477-0.83984-11.75 1.125-15.926 5.3008s-6.1406 10.078-5.3008 15.926l22.727 159.04v-0.003906c4.875 33.125 21.465 63.398 46.758 85.336 25.293 21.934 57.613 34.074 91.09 34.215 30.43-0.007812 60.008-10.051 84.152-28.574l48.602 48.602-0.003906-0.003906c-94.781 6.4375-183.59 48.594-248.51 117.96-64.918 69.363-101.1 160.77-101.25 255.77zm431.25-589.24c0.09375-24.469 8.9609-48.094 24.988-66.582 16.031-18.488 38.16-30.617 62.367-34.18l134.29-19.18-19.145 134.32c-4.9492 34.812-27.535 64.602-59.727 78.754-32.188 14.156-69.406 10.672-98.41-9.2109l100.18-100.18c4.6016-4.7656 6.3477-11.598 4.5977-17.984-1.75-6.3867-6.7422-11.375-13.125-13.125-6.3867-1.75-13.223-0.003907-17.984 4.5938l-100.22 100.18c-11.613-16.895-17.824-36.914-17.812-57.414zm-219.64 294.13 15.789 7.8945h-0.003906c7.9375 3.9531 14.043 10.82 17.035 19.168 2.9961 8.3438 2.6484 17.527-0.96484 25.625l-36.133 81.32v-0.003906c-6.9336 15.504-8.1445 32.969-3.4141 49.281 4.7344 16.309 15.098 30.414 29.254 39.801l39.262 26.25c6.5586 4.4023 11.41 10.914 13.754 18.457 2.3398 7.543 2.0234 15.66-0.89062 23-3.5742 8.9453-10.73 15.988-19.734 19.414-9.0039 3.4219-19.031 2.918-27.648-1.3945l-13.125-6.6172v-0.003906c-17.066-8.5195-36.816-9.918-54.914-3.8867-18.098 6.0273-33.062 18.992-41.609 36.043l-1.6133 3.2266c-4.9297 9.8438-14.266 16.742-25.125 18.562l-56.457 9.375c-15.188-70.734-7.1836-144.48 22.828-210.31 30.008-65.828 80.43-120.24 143.79-155.17zm-156.54 401.81 52.5-8.7578c22.68-3.8164 42.18-18.219 52.5-38.773l1.6133-3.207h-0.003906c4.0781-8.1758 11.238-14.395 19.906-17.289 8.6641-2.8906 18.125-2.2148 26.297 1.875l13.219 6.6172v0.003906c22.039 11.035 48.199 10.016 69.316-2.6992 21.117-12.715 34.254-35.359 34.812-60 0.55859-24.645-11.535-47.859-32.055-61.52l-39.262-26.25c-6.7734-4.5-11.734-11.254-14-19.062-2.2656-7.8086-1.6914-16.168 1.625-23.594l36.148-81.301c6.7148-15.094 8.0039-32.047 3.6602-47.984-4.3477-15.938-14.062-29.887-27.512-39.484 57.133-22.277 119.29-28.418 179.68-17.758 60.387 10.66 116.68 37.715 162.73 78.207l-16.574 49.742v0.003906c-12.18 36.324-5.0391 76.348 18.957 106.22 10.016 12.488 15.781 27.852 16.457 43.848 0.67188 16-3.7773 31.793-12.707 45.082l-17.605 26.438h-0.003906c-9.9258 14.879-24.82 25.742-42.016 30.656l-29.625 8.5312c-23.547 6.8047-44.254 21.062-59.016 40.625-14.762 19.566-22.785 43.391-22.867 67.898v7.3906c0.039062 26.418 9.3281 51.992 26.25 72.281l53.512 64.219c-57.414 25.441-120.8 34.316-183 25.621-62.195-8.6953-120.72-34.617-168.95-74.836s-84.258-93.125-103.99-152.74zm657.43-106.71c-0.070312 58.906-15.566 116.77-44.941 167.83s-71.609 93.539-122.5 123.21l-58.836-70.613c-11.285-13.555-17.465-30.629-17.477-48.262v-7.3906c0.050781-16.375 5.4062-32.289 15.27-45.363 9.8594-13.074 23.691-22.594 39.426-27.141l29.68-8.4922v-0.003906c25.758-7.3555 48.062-23.633 62.926-45.918l17.605-26.438c13.344-19.91 19.98-43.562 18.941-67.508-1.0391-23.949-9.6992-46.938-24.715-65.617-16.039-19.938-20.801-46.68-12.641-70.93l10.727-32.211v-0.003906c55.664 61.668 86.496 141.78 86.531 224.85zm-495.49-431.25c-24.469-0.09375-48.094-8.9609-66.582-24.988-18.488-16.031-30.617-38.16-34.18-62.367l-19.145-134.29 134.29 19.145c34.812 4.9492 64.602 27.535 78.754 59.727 14.156 32.188 10.672 69.406-9.2109 98.41l-100.18-100.18c-4.7656-4.6016-11.598-6.3477-17.984-4.5977-6.3867 1.75-11.375 6.7422-13.125 13.125-1.75 6.3867-0.003907 13.223 4.5938 17.984l100.18 100.18h0.003906c-16.891 11.629-36.91 17.852-57.414 17.852z"/>
 <path d="m542.48 925.57c-7.7656-13.605-20.266-23.875-35.121-28.852-14.852-4.9766-31.02-4.3125-45.41 1.8711l-13.332 5.625c-14.488 6.1875-26.176 17.516-32.805 31.809-6.625 14.293-7.7266 30.531-3.0898 45.59 4.6367 15.055 14.684 27.859 28.207 35.945l6.9766 4.1797h-0.003906c4.2852 2.5742 7.7461 6.3125 9.9766 10.781l7.5 15c8.4453 16.938 23.988 29.238 42.414 33.562 4.8242 1.1328 9.7617 1.707 14.719 1.707 22.742 0.007812 43.77-12.102 55.176-31.777 11.41-19.68 11.465-43.945 0.15234-63.68zm-4.3516 114.54c-6.2461 4.6914-14.254 6.3672-21.859 4.5742-7.6055-1.793-14.02-6.8672-17.516-13.855l-7.5-15c-5.4219-10.844-13.828-19.918-24.227-26.156l-6.9766-4.1797h0.003906c-5.5859-3.3242-9.7422-8.6016-11.66-14.812s-1.4648-12.914 1.2734-18.809c2.7422-5.8945 7.5703-10.566 13.555-13.105l13.352-5.625c5.9258-2.5547 12.59-2.832 18.711-0.78516s11.277 6.2812 14.477 11.887l35.344 61.875c3.1484 5.5508 4.1758 12.055 2.8945 18.305-1.2852 6.2539-4.7891 11.828-9.8711 15.688z"/>
</svg>
