<?xml version="1.0" encoding="UTF-8"?>
<svg width="1200pt" height="1200pt" version="1.1" viewBox="0 0 1200 1200" xmlns="http://www.w3.org/2000/svg">
 <path d="m69.508 42.992c-3.5195-3.5117-8.2852-5.4883-13.258-5.4883s-9.7422 1.9766-13.258 5.4922c-3.5156 3.5156-5.4922 8.2812-5.4922 13.254v1087.5c0 4.9727 1.9766 9.7422 5.4922 13.258 3.5156 3.5156 8.2852 5.4922 13.258 5.4922h1087.5c4.9727 0 9.7383-1.9766 13.254-5.4922 3.5156-3.5156 5.4922-8.2852 5.4922-13.258s-1.9766-9.7383-5.4883-13.258zm5.4922 1082v-1023.5l104.74 104.74-42.996 42.992c-3.6172 3.4961-5.6797 8.2969-5.7227 13.324-0.042969 5.0312 1.9375 9.8672 5.4922 13.422 3.5547 3.5547 8.3906 5.5352 13.422 5.4922 5.0273-0.042969 9.8281-2.1055 13.324-5.7227l42.992-42.996 29.738 29.738-24.242 24.242h-0.003906c-3.6172 3.4961-5.6797 8.2969-5.7227 13.324-0.042969 5.0312 1.9375 9.8672 5.4922 13.422 3.5547 3.5547 8.3906 5.5352 13.422 5.4922 5.0273-0.042969 9.8281-2.1055 13.324-5.7227l24.242-24.246 29.738 29.738-42.992 42.992h-0.003906c-3.6172 3.4961-5.6797 8.2969-5.7227 13.324-0.042969 5.0312 1.9375 9.8672 5.4922 13.422 3.5547 3.5547 8.3906 5.5352 13.422 5.4922 5.0273-0.042969 9.8281-2.1055 13.324-5.7227l42.992-42.996 29.738 29.738-24.242 24.242h-0.003906c-3.6172 3.4961-5.6797 8.2969-5.7227 13.324-0.042969 5.0312 1.9375 9.8672 5.4922 13.422 3.5547 3.5547 8.3906 5.5352 13.422 5.4922 5.0273-0.042969 9.8281-2.1055 13.324-5.7227l24.242-24.246 29.738 29.738-42.992 42.992h-0.003906c-3.6172 3.4961-5.6797 8.2969-5.7227 13.324-0.042969 5.0312 1.9375 9.8672 5.4922 13.422 3.5547 3.5547 8.3906 5.5352 13.422 5.4922 5.0273-0.042969 9.8281-2.1055 13.324-5.7227l42.992-42.996 29.738 29.738-24.242 24.242h-0.003906c-3.6172 3.4961-5.6797 8.2969-5.7227 13.324-0.042969 5.0312 1.9375 9.8672 5.4922 13.422 3.5547 3.5547 8.3906 5.5352 13.422 5.4922 5.0273-0.042969 9.8281-2.1055 13.324-5.7227l24.242-24.246 29.738 29.738-42.992 42.992h-0.003906c-3.6172 3.4961-5.6797 8.2969-5.7227 13.324-0.042969 5.0312 1.9375 9.8672 5.4922 13.422 3.5547 3.5547 8.3906 5.5352 13.422 5.4922 5.0273-0.042969 9.8281-2.1055 13.324-5.7227l42.992-42.996 29.738 29.738-24.242 24.242h-0.003906c-3.6172 3.4961-5.6797 8.2969-5.7227 13.324-0.042969 5.0312 1.9375 9.8672 5.4922 13.422 3.5547 3.5547 8.3906 5.5352 13.422 5.4922 5.0273-0.042969 9.8281-2.1055 13.324-5.7227l24.242-24.246 29.738 29.738-42.992 42.992h-0.003906c-3.6172 3.4961-5.6797 8.2969-5.7227 13.324-0.042969 5.0312 1.9375 9.8672 5.4922 13.422 3.5547 3.5547 8.3906 5.5352 13.422 5.4922 5.0273-0.042969 9.8281-2.1055 13.324-5.7227l42.992-42.996 29.738 29.738-24.242 24.242h-0.003906c-3.6172 3.4961-5.6797 8.2969-5.7227 13.324-0.042969 5.0312 1.9375 9.8672 5.4922 13.422 3.5547 3.5547 8.3906 5.5352 13.422 5.4922 5.0273-0.042969 9.8281-2.1055 13.324-5.7227l24.242-24.246 29.738 29.738-42.992 42.992h-0.003906c-3.6172 3.4961-5.6797 8.2969-5.7227 13.324-0.042969 5.0312 1.9375 9.8672 5.4922 13.422 3.5547 3.5547 8.3906 5.5352 13.422 5.4922 5.0273-0.042969 9.8281-2.1055 13.324-5.7227l42.992-42.996 29.738 29.738-24.242 24.242h-0.003906c-3.6172 3.4961-5.6797 8.2969-5.7227 13.324-0.042969 5.0312 1.9375 9.8672 5.4922 13.422 3.5547 3.5547 8.3906 5.5352 13.422 5.4922 5.0273-0.042969 9.8281-2.1055 13.324-5.7227l24.242-24.246 29.738 29.738-42.992 42.992h-0.003906c-3.6172 3.4961-5.6797 8.2969-5.7227 13.324-0.042969 5.0312 1.9375 9.8672 5.4922 13.422 3.5547 3.5547 8.3906 5.5352 13.422 5.4922 5.0273-0.042969 9.8281-2.1055 13.324-5.7227l42.992-42.996 29.738 29.738-24.242 24.242h-0.003906c-3.6172 3.4961-5.6797 8.2969-5.7227 13.324-0.042969 5.0312 1.9375 9.8672 5.4922 13.422 3.5547 3.5547 8.3906 5.5352 13.422 5.4922 5.0273-0.042969 9.8281-2.1055 13.324-5.7227l24.242-24.246 29.738 29.738-42.992 42.992h-0.003906c-3.6172 3.4961-5.6797 8.2969-5.7227 13.324-0.042969 5.0312 1.9375 9.8672 5.4922 13.422 3.5547 3.5547 8.3906 5.5352 13.422 5.4922 5.0273-0.042969 9.8281-2.1055 13.324-5.7227l42.992-42.996 104.74 104.74z" stroke="currentColor"/>
 <path d="m219.51 455.49c-3.5195-3.5117-8.2852-5.4883-13.258-5.4883s-9.7422 1.9766-13.258 5.4922c-3.5156 3.5156-5.4922 8.2812-5.4922 13.254v525c0 4.9727 1.9766 9.7422 5.4922 13.258 3.5156 3.5156 8.2852 5.4922 13.258 5.4922h525c4.9727 0 9.7383-1.9766 13.254-5.4922 3.5156-3.5156 5.4922-8.2852 5.4922-13.258s-1.9766-9.7383-5.4883-13.258zm5.4922 519.51v-460.99l460.99 460.99z" stroke="currentColor"/>
 <path d="m1124 781.57c-0.92188-2.7617-2.4766-5.2734-4.5352-7.332l-675-675-40.707-40.723c-13.434-13.602-31.734-21.281-50.848-21.344-19.117-0.058593-37.465 7.5117-50.98 21.027-13.516 13.52-21.078 31.867-21.016 50.984 0.0625 19.113 7.7461 37.414 21.348 50.844l40.707 40.727 675 675c2.0664 2.0469 4.5742 3.5938 7.332 4.5156l112.5 37.5c1.9023 0.64453 3.8984 0.97266 5.9062 0.97656 6.0273 0 11.688-2.8945 15.211-7.7812 3.5273-4.8906 4.4883-11.176 2.582-16.895zm-805.29-672.3c0.003906-9.0898 3.6172-17.812 10.047-24.238 6.4297-6.4297 15.152-10.043 24.246-10.043s17.812 3.6094 24.246 10.039l27.449 27.469-48.488 48.488-27.469-27.469c-6.4023-6.4492-10.008-15.16-10.031-24.246zm112.5 29.738 593.42 593.42c-0.14844 0-0.24219 0.16797-0.39453 0.22656-0.45703 0.22266-0.90234 0.47656-1.3281 0.75-3.543 1.7656-6.4258 4.625-8.2148 8.1562-0.30078 0.60156-0.63672 1.1641-0.89844 1.875-0.83594 2.0898-1.2891 4.3125-1.332 6.5625v18.75h-18.75c-2.2734 0.035156-4.5234 0.48438-6.6367 1.332-0.63672 0.24219-1.1797 0.60156-1.875 0.89844-1.3555 0.70312-2.6133 1.5703-3.75 2.5898-0.55078 0.45313-1.0703 0.94141-1.5586 1.4609-1.0977 1.2383-2.0234 2.6211-2.7539 4.1055-0.28906 0.45312-0.55078 0.92578-0.78906 1.4062 0 0.13281-0.16797 0.24219-0.22656 0.375l-593.4-593.42zm610.12 707.1-28.875-28.875v-10.988h18.75c4.9727 0 9.7422-1.9766 13.258-5.4922 3.5156-3.5156 5.4922-8.2852 5.4922-13.258v-18.75h10.988l28.875 28.875 24.242 72.73z" stroke="currentColor"/>
 <path d="m1100.8 249.24-206.25-206.25c-3.5195-3.5117-8.2852-5.4883-13.258-5.4883s-9.7383 1.9766-13.258 5.4883l-168.75 168.75c-3.5117 3.5195-5.4883 8.2852-5.4883 13.258s1.9766 9.7383 5.4883 13.258l206.25 206.25 21.957 21.977v-0.003906c17.602 17.555 41.441 27.414 66.301 27.414s48.699-9.8594 66.301-27.414l62.664-62.699h-0.003906c17.578-17.582 27.449-41.422 27.449-66.281s-9.8711-48.699-27.449-66.281zm-219.51-166.48 179.74 179.74-142.24 142.24-179.74-179.74zm214.95 294.51-62.664 62.699h0.003906c-10.562 10.535-24.871 16.449-39.789 16.449s-29.227-5.9141-39.789-16.449l-8.6992-8.7188 142.24-142.24 8.6992 8.7188c10.547 10.551 16.469 24.855 16.469 39.77s-5.9219 29.219-16.469 39.77z" stroke="currentColor"/>
</svg>
