<?xml version="1.0" encoding="UTF-8"?>
<svg width="1200pt" height="1200pt" version="1.1" viewBox="0 0 1200 1200" xmlns="http://www.w3.org/2000/svg">
 <path d="m1143.8 337.5h-81.242l-18.938-14.211-63.074-63.055-0.003906-0.003906c-10.523-10.582-24.844-16.516-39.766-16.48h-78.227c-1.5312 0-3.0547 0.1875-4.5391 0.5625l-150 37.5c-5.8516 1.4609-10.645 5.6445-12.879 11.25l-17.777 44.438h-621.05c-6.6992 0-12.887 3.5742-16.238 9.375-3.3477 5.8008-3.3477 12.949 0 18.75 3.3516 5.8008 9.5391 9.375 16.238 9.375h613.95c1.2227 11.223 5.8906 21.793 13.359 30.262 7.4688 8.4648 17.375 14.414 28.359 17.027 13.699 3.3594 28.164 1.4609 40.531-5.3203 12.371-6.7852 21.746-17.961 26.277-31.32l4.5547-13.707 36.281-9.0547-12.617 63-35.945 89.852-33.375 44.531c-10.523 15.027-12.441 34.461-5.0508 51.254 7.3867 16.797 23.004 28.516 41.195 30.91 18.191 2.3984 36.312-4.875 47.801-19.184l37.18-49.5c0.70312-0.91016 1.332-1.875 1.875-2.8867l25.855-51.73 29.102 29.117-14.195 35.457c-6.5195 16.277-4.5234 34.73 5.3242 49.238 10.07 14.777 26.875 23.531 44.758 23.305 10.793 0.003906 21.309-3.3945 30.059-9.7109 8.75-6.3125 15.293-15.223 18.691-25.465l22.742-68.176c3.332-9.9062 3.8203-20.543 1.4141-30.715-2.4062-10.168-7.6094-19.465-15.023-26.828l-51.113-51.113 9.7305-38.906 33.281 22.164 32.062 24.055c14.137 10.523 32.496 13.543 49.258 8.1016 16.762-5.4414 29.848-18.668 35.109-35.488 5.2578-16.82 2.0391-35.145-8.6367-49.168h34.707c6.6992 0 12.887-3.5742 16.238-9.375 3.3477-5.8008 3.3477-12.949 0-18.75-3.3516-5.8008-9.5391-9.375-16.238-9.375zm-61.406 74.625c-1.3398 5.5195-5.3945 9.9766-10.762 11.832-5.3164 1.9531-11.262 1.0469-15.75-2.4023l-32.926-24.656-56.25-37.5c-5.0742-3.3828-11.477-4.0859-17.168-1.8867-5.6875 2.2031-9.9492 7.0312-11.426 12.949l-18.75 75c-1.5938 6.3867 0.27734 13.141 4.9297 17.797l58.613 58.613v-0.003906c2.4648 2.4609 4.1914 5.5586 4.9922 8.9492 0.80078 3.3867 0.64453 6.9297-0.45312 10.234l-22.727 68.156c-2.0625 5.9297-7.7695 9.8086-14.043 9.543-5.1641 0.054688-10.004-2.5078-12.863-6.8047-2.9023-4.1875-3.4805-9.5625-1.5352-14.27l18.75-46.969c1.3594-3.4062 1.6875-7.1367 0.94922-10.73-0.74219-3.5938-2.5195-6.8906-5.1133-9.4844l-56.25-56.25c-3.5273-3.5273-8.3203-5.5078-13.312-5.4922-1.0039 0-2.0078 0.078125-3 0.24219-5.9531 0.96484-11.082 4.7305-13.781 10.125l-36.73 73.48-36.133 48.113c-2.2969 3.0508-5.6719 5.1094-9.4336 5.7578s-7.6289-0.16406-10.816-2.2695c-3.4297-2.2734-5.7773-5.8633-6.4883-9.918-0.70703-4.0547 0.28125-8.2266 2.7383-11.531l34.895-46.5c0.98828-1.3203 1.8008-2.7617 2.418-4.293l37.5-93.75c0.42188-1.0625 0.74219-2.1602 0.95703-3.2812l18.75-93.75c1.2539-6.2969-0.79688-12.801-5.4453-17.234-4.6445-4.4297-11.234-6.1797-17.469-4.6289l-75 18.75c-6.2227 1.5508-11.227 6.1758-13.254 12.262l-7.8008 23.477c-1.5195 4.4141-4.6328 8.0977-8.7305 10.34-4.0938 2.2383-8.875 2.8711-13.414 1.7734-5.207-1.293-9.5977-4.7734-12.039-9.5508-2.4414-4.7734-2.6953-10.375-0.69141-15.352l18.055-45.148 138.47-34.613h75.922c4.9727 0 9.7383 1.9766 13.254 5.4922l64.012 64.012v0.003906c0.62891 0.625 1.3008 1.207 2.0078 1.7422l56.082 42.055c2.6562 1.9922 4.6641 4.7188 5.7773 7.8438s1.2812 6.5078 0.48438 9.7266z" fill="currentColor"/>
 <path d="m468.75 543.75c0-24.863-9.8789-48.711-27.457-66.293-17.582-17.578-41.43-27.457-66.293-27.457s-48.711 9.8789-66.293 27.457c-17.578 17.582-27.457 41.43-27.457 66.293s9.8789 48.711 27.457 66.293c17.582 17.578 41.43 27.457 66.293 27.457 24.855-0.03125 48.684-9.918 66.258-27.492 17.574-17.574 27.461-41.402 27.492-66.258zm-150 0c0-14.918 5.9258-29.227 16.477-39.773 10.547-10.551 24.855-16.477 39.773-16.477s29.227 5.9258 39.773 16.477c10.551 10.547 16.477 24.855 16.477 39.773s-5.9258 29.227-16.477 39.773c-10.547 10.551-24.855 16.477-39.773 16.477s-29.227-5.9258-39.773-16.477c-10.551-10.547-16.477-24.855-16.477-39.773z" fill="currentColor"/>
 <path d="m1012.5 131.25c0-24.863-9.8789-48.711-27.457-66.293-17.582-17.578-41.43-27.457-66.293-27.457s-48.711 9.8789-66.293 27.457c-17.578 17.582-27.457 41.43-27.457 66.293s9.8789 48.711 27.457 66.293c17.582 17.578 41.43 27.457 66.293 27.457 24.855-0.03125 48.684-9.918 66.258-27.492 17.574-17.574 27.461-41.402 27.492-66.258zm-150 0c0-14.918 5.9258-29.227 16.477-39.773 10.547-10.551 24.855-16.477 39.773-16.477s29.227 5.9258 39.773 16.477c10.551 10.547 16.477 24.855 16.477 39.773s-5.9258 29.227-16.477 39.773c-10.547 10.551-24.855 16.477-39.773 16.477s-29.227-5.9258-39.773-16.477c-10.551-10.547-16.477-24.855-16.477-39.773z" fill="currentColor"/>
 <path d="m1143.8 731.25h-545.02c-8.3438-9.7031-19.691-16.336-32.242-18.844-12.547-2.5078-25.574-0.74609-37.004 5.0078l-20.887 10.445-74.102-59.27v-0.003906c-9.9648-7.9766-22.352-12.328-35.117-12.336h-80.625c-1.3672 0.003906-2.7305 0.14844-4.0703 0.42969l-139.37 30.996c-10.605 2.3086-20.305 7.6602-27.91 15.398-7.6094 7.7422-12.793 17.531-14.914 28.176h-76.238c-6.6992 0-12.887 3.5742-16.238 9.375-3.3477 5.8008-3.3477 12.949 0 18.75 3.3516 5.8008 9.5391 9.375 16.238 9.375h75v18.75c0 20.098 10.723 38.664 28.125 48.715 17.402 10.047 38.848 10.047 56.25 0 17.402-10.051 28.125-28.617 28.125-48.715v-4.1055l32.062-8.0078-12.617 63-35.926 89.852-33.355 44.477v-0.003906c-8.7266 11.113-12.609 25.27-10.766 39.277 1.8398 14.004 9.25 26.68 20.551 35.156 11.305 8.4766 25.543 12.039 39.508 9.8828 13.961-2.1523 26.465-9.8438 34.688-21.332l37.105-49.445c0.67188-0.90625 1.2695-1.8633 1.7812-2.8672l25.855-51.73 29.102 29.117-14.195 35.477v-0.003906c-5.2695 13.266-4.9531 28.098 0.875 41.125 5.8281 13.027 16.676 23.145 30.078 28.051 13.402 4.9102 28.219 4.1914 41.082-1.9883 12.867-6.1797 22.684-17.301 27.227-30.828l22.5-67.199v-0.003906c3.332-9.9062 3.8203-20.543 1.4141-30.715-2.4062-10.168-7.6094-19.465-15.023-26.828l-51.508-51.523 10.727-53.68 69.695 55.742h-0.003906c2.9922 2.3906 6.6445 3.8086 10.465 4.0664 3.8203 0.25391 7.6289-0.66797 10.91-2.6406l69.02-41.422c17.422-10.438 27.992-29.34 27.77-49.648h530.98c6.6992 0 12.887-3.5742 16.238-9.375 3.3477-5.8008 3.3477-12.949 0-18.75-3.3516-5.8008-9.5391-9.375-16.238-9.375zm-578.12 55.012-57.844 34.707-83.57-66.863c-5.1094-4.0859-11.98-5.2109-18.129-2.9688-6.1484 2.2383-10.684 7.5234-11.965 13.938l-18.75 93.75c-1.2109 6.1289 0.70703 12.453 5.1172 16.875l58.613 58.613c2.4648 2.4609 4.1914 5.5586 4.9922 8.9453 0.80078 3.3906 0.64453 6.9336-0.45312 10.234l-22.387 67.18v0.003906c-2.1562 5.2578-6.9492 8.9688-12.582 9.7422-5.6289 0.77344-11.246-1.5078-14.738-5.9922-2.9141-4.2109-3.5-9.6094-1.5547-14.344l18.75-46.875c1.3594-3.4062 1.6875-7.1367 0.94922-10.73-0.74219-3.5938-2.5195-6.8906-5.1133-9.4844l-56.25-56.25c-3.5078-3.5039-8.2578-5.4805-13.219-5.4922-1.0039 0-2.0078 0.078125-3 0.24219-5.9531 0.96484-11.082 4.7305-13.781 10.125l-36.73 73.48-36.074 48.113c-3.2188 4.293-8.4844 6.5391-13.809 5.8984-5.3242-0.64453-9.9023-4.0781-12.008-9.0117-2.1094-4.9297-1.4219-10.613 1.7969-14.902l34.855-46.445c0.99219-1.3164 1.8047-2.7617 2.418-4.293l37.5-93.75c0.42188-1.0625 0.74219-2.1602 0.95703-3.2812l18.75-93.75c1.2539-6.2969-0.79688-12.801-5.4453-17.234-4.6445-4.4297-11.234-6.1797-17.469-4.6289l-75 18.75c-4.0547 1.0117-7.6602 3.3516-10.234 6.6484-2.5742 3.293-3.9766 7.3555-3.9766 11.539v18.75c0 6.6992-3.5742 12.887-9.375 16.238-5.8008 3.3477-12.949 3.3477-18.75 0-5.8008-3.3516-9.375-9.5391-9.375-16.238v-45c-0.023438-4.2695 1.4258-8.418 4.0977-11.746s6.4102-5.6367 10.582-6.5352l137.36-30.469h78.582c4.2539 0.007812 8.3828 1.4609 11.699 4.125l83.477 66.77c2.8008 2.2227 6.1797 3.6055 9.7383 3.9844 3.5586 0.37891 7.1523-0.26172 10.359-1.8477l31.613-15.824c6.2734-3.1211 13.719-2.7578 19.66 0.95312 5.9375 3.7148 9.5273 10.246 9.4727 17.254-0.058593 7.0039-3.7461 13.48-9.7461 17.098z" fill="currentColor"/>
 <path d="m1143.8 1125h-1087.5c-6.6992 0-12.887 3.5742-16.238 9.375-3.3477 5.8008-3.3477 12.949 0 18.75 3.3516 5.8008 9.5391 9.375 16.238 9.375h1087.5c6.6992 0 12.887-3.5742 16.238-9.375 3.3477-5.8008 3.3477-12.949 0-18.75-3.3516-5.8008-9.5391-9.375-16.238-9.375z" fill="currentColor"/>
</svg>
