<?xml version="1.0" encoding="UTF-8"?>
<svg width="1200pt" height="1200pt" version="1.1" viewBox="0 0 1200 1200" xmlns="http://www.w3.org/2000/svg">
 <path d="m581.25 337.5c-4.9727 0-9.7422-1.9766-13.258-5.4922-3.5156-3.5156-5.4922-8.2852-5.4922-13.258 0.042969-39.77 15.863-77.895 43.984-106.02s66.246-43.941 106.02-43.984c4.9727 0 9.7422 1.9766 13.258 5.4922 3.5156 3.5156 5.4922 8.2852 5.4922 13.258-0.042969 39.77-15.863 77.895-43.984 106.02s-66.246 43.941-106.02 43.984zm20.625-39.375c22.316-4.1992 42.848-15.035 58.906-31.094s26.895-36.59 31.094-58.906c-22.316 4.1992-42.848 15.035-58.906 31.094s-26.895 36.59-31.094 58.906z" fill="currentColor"/>
 <path d="m948.3 492.17c-25.387-58.266-72.305-104.47-130.96-128.96-58.648-24.496-124.5-25.379-183.78-2.4727-21.594 8.3633-45.531 8.3633-67.125 0-46.836-18.02-98.055-21.336-146.82-9.5078-48.77 11.832-92.773 38.242-126.15 75.719-33.379 37.477-54.539 84.234-60.664 134.04s3.0781 100.3 26.379 144.75l97.367 185.89h0.003906c17.562 33.691 48.008 58.84 84.406 69.727 36.402 10.887 75.656 6.5781 108.83-11.938 31.191-17.477 69.23-17.477 100.42 0 33.191 18.438 72.418 22.699 108.8 11.82 36.375-10.879 66.824-35.977 84.441-69.609l97.367-185.89h0.003906c17.246-32.734 26.875-68.945 28.172-105.93 1.293-36.977-5.7773-73.773-20.691-107.64zm-40.707 196.09-97.367 185.89c-12.926 24.684-35.27 43.105-61.965 51.09-26.699 7.9844-55.484 4.8555-79.844-8.6797-42.512-23.824-94.359-23.824-136.88 0-24.355 13.535-53.145 16.664-79.84 8.6797s-49.039-26.406-61.965-51.09l-97.238-185.89c-19.828-37.691-27.684-80.539-22.512-122.81 5.1758-42.273 23.125-81.961 51.457-113.76 28.336-31.797 65.699-54.191 107.1-64.184 41.398-9.9961 84.863-7.1172 124.58 8.2539 30.266 11.66 63.785 11.66 94.051 0 39.715-15.293 83.145-18.113 124.5-8.0938 41.359 10.023 78.684 32.41 106.99 64.184 28.312 31.773 46.266 71.422 51.469 113.66 5.2031 42.238-2.5898 85.059-22.34 122.75z" fill="currentColor"/>
 <path d="m937.5 281.25c-4.9727 0-9.7422-1.9766-13.258-5.4922-3.5156-3.5156-5.4922-8.2852-5.4922-13.258v-206.25c0-6.6992 3.5742-12.887 9.375-16.238 5.8008-3.3477 12.949-3.3477 18.75 0 5.8008 3.3516 9.375 9.5391 9.375 16.238v206.25c0 4.9727-1.9766 9.7422-5.4922 13.258-3.5156 3.5156-8.2852 5.4922-13.258 5.4922z" fill="currentColor"/>
 <path d="m825 112.5c-4.9727 0-9.7422-1.9766-13.258-5.4922-3.5156-3.5156-5.4922-8.2852-5.4922-13.258v-37.5c0-6.6992 3.5742-12.887 9.375-16.238 5.8008-3.3477 12.949-3.3477 18.75 0 5.8008 3.3516 9.375 9.5391 9.375 16.238v37.5c0 4.9727-1.9766 9.7422-5.4922 13.258-3.5156 3.5156-8.2852 5.4922-13.258 5.4922z" fill="currentColor"/>
 <path d="m825 318.75c-4.9727 0-9.7422-1.9766-13.258-5.4922-3.5156-3.5156-5.4922-8.2852-5.4922-13.258v-131.25c0-6.6992 3.5742-12.887 9.375-16.238 5.8008-3.3477 12.949-3.3477 18.75 0 5.8008 3.3516 9.375 9.5391 9.375 16.238v131.25c0 4.9727-1.9766 9.7422-5.4922 13.258-3.5156 3.5156-8.2852 5.4922-13.258 5.4922z" fill="currentColor"/>
 <path d="m262.5 131.25c-4.9727 0-9.7422-1.9766-13.258-5.4922-3.5156-3.5156-5.4922-8.2852-5.4922-13.258v-56.25c0-6.6992 3.5742-12.887 9.375-16.238 5.8008-3.3477 12.949-3.3477 18.75 0 5.8008 3.3516 9.375 9.5391 9.375 16.238v56.25c0 4.9727-1.9766 9.7422-5.4922 13.258-3.5156 3.5156-8.2852 5.4922-13.258 5.4922z" fill="currentColor"/>
 <path d="m262.5 393.75c-4.9727 0-9.7422-1.9766-13.258-5.4922-3.5156-3.5156-5.4922-8.2852-5.4922-13.258v-187.5c0-6.6992 3.5742-12.887 9.375-16.238 5.8008-3.3477 12.949-3.3477 18.75 0 5.8008 3.3516 9.375 9.5391 9.375 16.238v187.5c0 4.9727-1.9766 9.7422-5.4922 13.258-3.5156 3.5156-8.2852 5.4922-13.258 5.4922z" fill="currentColor"/>
 <path d="m375 206.25c-4.9727 0-9.7422-1.9766-13.258-5.4922-3.5156-3.5156-5.4922-8.2852-5.4922-13.258v-131.25c0-6.6992 3.5742-12.887 9.375-16.238 5.8008-3.3477 12.949-3.3477 18.75 0 5.8008 3.3516 9.375 9.5391 9.375 16.238v131.25c0 4.9727-1.9766 9.7422-5.4922 13.258-3.5156 3.5156-8.2852 5.4922-13.258 5.4922z" fill="currentColor"/>
 <path d="m375 318.75c-4.9727 0-9.7422-1.9766-13.258-5.4922-3.5156-3.5156-5.4922-8.2852-5.4922-13.258v-37.5c0-6.6992 3.5742-12.887 9.375-16.238 5.8008-3.3477 12.949-3.3477 18.75 0 5.8008 3.3516 9.375 9.5391 9.375 16.238v37.5c0 4.9727-1.9766 9.7422-5.4922 13.258-3.5156 3.5156-8.2852 5.4922-13.258 5.4922z" fill="currentColor"/>
 <path d="m487.5 93.75c-4.9727 0-9.7422-1.9766-13.258-5.4922-3.5156-3.5156-5.4922-8.2852-5.4922-13.258v-18.75c0-6.6992 3.5742-12.887 9.375-16.238 5.8008-3.3477 12.949-3.3477 18.75 0 5.8008 3.3516 9.375 9.5391 9.375 16.238v18.75c0 4.9727-1.9766 9.7422-5.4922 13.258-3.5156 3.5156-8.2852 5.4922-13.258 5.4922z" fill="currentColor"/>
 <path d="m487.5 300c-4.9727 0-9.7422-1.9766-13.258-5.4922-3.5156-3.5156-5.4922-8.2852-5.4922-13.258v-131.25c0-6.6992 3.5742-12.887 9.375-16.238 5.8008-3.3477 12.949-3.3477 18.75 0 5.8008 3.3516 9.375 9.5391 9.375 16.238v131.25c0 4.9727-1.9766 9.7422-5.4922 13.258-3.5156 3.5156-8.2852 5.4922-13.258 5.4922z" fill="currentColor"/>
 <path d="m712.5 131.25c-4.9727 0-9.7422-1.9766-13.258-5.4922-3.5156-3.5156-5.4922-8.2852-5.4922-13.258v-56.25c0-6.6992 3.5742-12.887 9.375-16.238 5.8008-3.3477 12.949-3.3477 18.75 0 5.8008 3.3516 9.375 9.5391 9.375 16.238v56.25c0 4.9727-1.9766 9.7422-5.4922 13.258-3.5156 3.5156-8.2852 5.4922-13.258 5.4922z" fill="currentColor"/>
 <path d="m600 168.75c-4.9727 0-9.7422-1.9766-13.258-5.4922-3.5156-3.5156-5.4922-8.2852-5.4922-13.258v-93.75c0-6.6992 3.5742-12.887 9.375-16.238 5.8008-3.3477 12.949-3.3477 18.75 0 5.8008 3.3516 9.375 9.5391 9.375 16.238v93.75c0 4.9727-1.9766 9.7422-5.4922 13.258-3.5156 3.5156-8.2852 5.4922-13.258 5.4922z" fill="currentColor"/>
 <path d="m642.99 1074.2-24.242 24.246v-85.988c0-6.6992-3.5742-12.887-9.375-16.238-5.8008-3.3477-12.949-3.3477-18.75 0-5.8008 3.3516-9.375 9.5391-9.375 16.238v85.988l-24.242-24.242v-0.003906c-4.7656-4.5977-11.598-6.3438-17.984-4.5938-6.3867 1.75-11.375 6.7383-13.125 13.125-1.75 6.3867-0.003907 13.219 4.5938 17.984l56.25 56.25c3.5195 3.5234 8.2969 5.5078 13.277 5.5078s9.7578-1.9844 13.273-5.5078l56.25-56.25c4.6016-4.7656 6.3477-11.598 4.5977-17.984-1.75-6.3867-6.7422-11.375-13.125-13.125-6.3867-1.75-13.223-0.003907-17.984 4.5938z" fill="currentColor"/>
 <path d="m830.49 1074.2-24.242 24.246v-85.988c0-6.6992-3.5742-12.887-9.375-16.238-5.8008-3.3477-12.949-3.3477-18.75 0-5.8008 3.3516-9.375 9.5391-9.375 16.238v85.988l-24.242-24.242v-0.003906c-4.7656-4.5977-11.598-6.3438-17.984-4.5938-6.3867 1.75-11.375 6.7383-13.125 13.125-1.75 6.3867-0.003907 13.219 4.5938 17.984l56.25 56.25c3.5195 3.5234 8.2969 5.5078 13.277 5.5078s9.7578-1.9844 13.273-5.5078l56.25-56.25c4.6016-4.7656 6.3477-11.598 4.5977-17.984-1.75-6.3867-6.7422-11.375-13.125-13.125-6.3867-1.75-13.223-0.003907-17.984 4.5938z" fill="currentColor"/>
 <path d="m455.49 1074.2-24.242 24.246v-85.988c0-6.6992-3.5742-12.887-9.375-16.238-5.8008-3.3477-12.949-3.3477-18.75 0-5.8008 3.3516-9.375 9.5391-9.375 16.238v85.988l-24.242-24.242v-0.003906c-4.7656-4.5977-11.598-6.3438-17.984-4.5938-6.3867 1.75-11.375 6.7383-13.125 13.125-1.75 6.3867-0.003907 13.219 4.5938 17.984l56.25 56.25c3.5195 3.5234 8.2969 5.5078 13.277 5.5078s9.7578-1.9844 13.273-5.5078l56.25-56.25c4.6016-4.7656 6.3477-11.598 4.5977-17.984-1.75-6.3867-6.7422-11.375-13.125-13.125-6.3867-1.75-13.223-0.003907-17.984 4.5938z" fill="currentColor"/>
 <path d="m937.5 393.75c-4.9727 0-9.7422-1.9766-13.258-5.4922-3.5156-3.5156-5.4922-8.2852-5.4922-13.258v-37.5c0-6.6992 3.5742-12.887 9.375-16.238 5.8008-3.3477 12.949-3.3477 18.75 0 5.8008 3.3516 9.375 9.5391 9.375 16.238v37.5c0 4.9727-1.9766 9.7422-5.4922 13.258-3.5156 3.5156-8.2852 5.4922-13.258 5.4922z" fill="currentColor"/>
</svg>
