<?xml version="1.0" encoding="UTF-8"?>
<svg width="1200pt" height="1200pt" version="1.1" viewBox="0 0 1200 1200" xmlns="http://www.w3.org/2000/svg">
 <path d="m600 0c-331.37 0-600 268.63-600 600 0 331.38 268.63 600 600 600 331.37 0 600-268.63 600-600 0-331.37-268.63-600-600-600zm0 120c-265.1 0-480 214.9-480 480s214.9 480 480 480 480-214.9 480-480-214.9-480-480-480z" fill-rule="evenodd"/>
 <path d="m540 360c0-33.137 26.863-60 60-60s60 26.863 60 60-26.863 60-60 60-60-26.863-60-60z"/>
 <path d="m540 540c0-33.137 26.863-60 60-60s60 26.863 60 60v300c0 33.137-26.863 60-60 60s-60-26.863-60-60z"/>
</svg>
