<?xml version="1.0" encoding="UTF-8"?>
<svg width="1200pt" height="1200pt" version="1.1" viewBox="0 0 1200 1200" xmlns="http://www.w3.org/2000/svg">
 <path d="m600.44 0c-105.42-0.078125-209 27.621-300.32 80.312-91.309 52.688-167.12 128.5-219.81 219.81-52.691 91.312-80.391 194.89-80.312 300.32 0.25781 109.94 31.234 217.61 89.441 310.88l-85.441 245.08c-2.1484 5.8359-2.5352 12.172-1.1133 18.223 1.4219 6.0508 4.5898 11.555 9.1133 15.82 4.5273 4.3477 10.23 7.2695 16.402 8.3984 6.1758 1.1328 12.543 0.42188 18.316-2.0391l224.44-97.441c97.09 65.316 211.38 100.34 328.4 100.64 105.42 0.078125 209-27.621 300.32-80.312 91.309-52.688 167.12-128.5 219.81-219.81 52.691-91.312 80.391-194.89 80.312-300.32-0.23828-326.16-273.44-599.32-599.56-599.56zm63.16 935c0 7.0547-2.8047 13.82-7.793 18.809-4.9883 4.9883-11.754 7.793-18.809 7.793h-66.039c-7.0508 0-13.812-2.8047-18.797-7.7969-4.9805-4.9883-7.7734-11.754-7.7656-18.805v-66c-0.007813-7.0508 2.7852-13.816 7.7656-18.805 4.9844-4.9922 11.746-7.7969 18.797-7.7969h66.039c7.0547 0 13.82 2.8047 18.809 7.793 4.9883 4.9883 7.793 11.754 7.793 18.809zm178.08-434.48c0 1.4805-0.23828 2.9219-0.44141 4.3203-0.19922 1.3984-0.39844 3.4414-0.67969 5.1602 0 1.1211-0.32031 2.2383-0.51953 3.3203-0.19922 1.0781-0.48047 2.7188-0.76172 4s-0.67969 3.4414-1.0781 5.1211c-0.23828 0.87891-0.44141 1.7617-0.67969 2.6016-0.23828 0.83984-0.55859 2.3594-0.92188 3.4805-0.35938 1.1211-0.83984 3.0391-1.3594 4.5586s-0.96094 3.0391-1.4805 4.5195h0.003907c-0.050781 0.19141-0.11719 0.37891-0.20312 0.55859-0.48047 1.3984-1 2.7617-1.5195 4l-0.71875 1.8008c-0.35937 0.92187-0.71875 1.8398-1.1211 2.7188-0.39844 0.87891-0.96094 2.2383-1.4805 3.3203-0.92188 2.1211-1.9219 4-3 6.2383-0.55859 1.1602-1.1992 2.3594-1.8398 3.5195-0.64062 1.1602-1.3203 2.3984-2 3.6016-0.67969 1.1992-1.3984 2.4414-2.1602 3.6406s-1.4414 2.3594-2.1992 3.5195c-0.76172 1.1602-1.4805 2.2812-2.2383 3.3984-2.3203 3.4805-4.8008 6.8789-7.3594 10.199-1.1211 1.4805-2.2812 2.9219-3.4414 4.3594-1.1602 1.4414-2.8008 3.3984-4.2383 5.0391-2 2.3203-4 4.6016-6.0781 6.8398-20.801 22.48-45.359 41.801-67.559 62.281-2.1211 1.9219-4 4-6.2383 5.8789-1.2539 1.1719-2.4922 2.375-3.7188 3.6016-1.2383 1.1992-2.4414 2.3984-3.6406 3.6406l-2 2.0391c-0.80078 0.80078-1.5586 1.5586-2.2812 2.3594-2.4805 2.668-4.8789 5.332-7.1992 8-1.1602 1.3203-2.3203 2.6797-3.4414 4-1.1211 1.3203-2.2383 2.7188-3.3203 4-1.0781 1.2812-2.7188 3.4805-4 5.2383-0.71875 0.96094-1.4414 1.9609-2.0781 2.9609-0.64062 1-1.3984 2-2.0391 3-0.64063 1-1.3203 1.9609-1.9609 2.9609s-1.6016 2.5195-2.3594 4c-0.76172 1.4805-1.4414 2.3984-2.0781 3.6406-0.64062 1.2383-1.1211 2-1.6406 3.0391-0.51953 1.0391-1.0781 2.0391-1.5586 3.0391v0.23828c-0.71875 1.4414-1.4414 2.9219-2.0781 4.4414-1.2812 2.8398-2.4805 5.7617-3.5586 8.7617-0.64062 1.8398-1.2812 3.6797-1.8398 5.6016v0.39844c-0.83984 2.6406-1.5586 5.2812-2.1602 8-0.60156 2.7188-1.0781 4.6016-1.4805 7 0 1.1992-0.39844 2.3984-0.55859 3.6016 0 0.60156-0.19922 1.2383-0.28125 1.8398l-0.015625 0.003906c-0.72266 5.2031-3.3125 9.9688-7.2852 13.41-3.9727 3.4453-9.0586 5.3281-14.312 5.3086h-76c-6.0664-0.015625-11.855-2.5547-15.973-7.0117-4.1211-4.4531-6.2031-10.418-5.7461-16.469-0.023438-0.26562-0.023438-0.53516 0-0.80078 0-1.9219 0.35938-3.8008 0.55859-5.6406 0.039063-0.66797 0.12109-1.3359 0.23828-2 0-1.1602 0.23828-2.3203 0.39844-3.4414 0-1.7188 0.44141-3.3594 0.67969-5 0-0.60156 0.19922-1.1602 0.28125-1.7188 0.078125-0.55859 0 0 0-0.19922 0.32031-1.9219 0.60156-4 1-5.6797h0.003906c-0.019531-0.25391-0.019531-0.50781 0-0.75781 0.34766-1.9727 0.74609-3.8945 1.1992-5.7617 0-0.76172 0.32031-1.5195 0.48047-2.2383 0.375-1.6797 0.77344-3.3203 1.1992-4.9219 0-0.55859 0.28125-1.1211 0.44141-1.6797 0.35937-1.4805 0.76172-2.9219 1.2383-4.3594 0.15625-0.73438 0.37109-1.457 0.64062-2.1602 0.44141-1.6406 0.96094-3.2812 1.5195-4.8398 0.125-0.49219 0.28516-0.97266 0.48047-1.4414 0.085937-0.3125 0.19531-0.62109 0.32031-0.91797 0.39844-1.1992 0.83984-2.3984 1.2812-3.6016h-0.003906c0.15234-0.49219 0.33984-0.97266 0.5625-1.4414 0.51953-1.5586 1.1211-3.0781 1.8008-4.6016l-0.003906 0.003907c0.16797-0.50781 0.36719-1.0039 0.60156-1.4805 0.48047-1.1992 1-2.3984 1.5195-3.5586s0.80078-1.8398 1.2383-2.7188c1.1992-2.5586 2.4414-5.0781 3.7188-7.5195 0.60156-1.1602 1.1992-2.3203 1.8398-3.4414l0.55859-1c0.80078-1.4414 1.6016-2.8008 2.4414-4 0.83984-1.1992 1.9609-3.2383 2.9609-4.8008 1.9219-3.0391 4-6 6.0391-8.8398 1.1211-1.5586 2.2383-3.0781 3.3984-4.5586 3.3594-4.3594 6.8008-8.4805 10.441-12.441l2.0781-2.2812c4.0781-4.3984 8.2812-8.6016 12.602-12.602l3.8008-3.4805c2.5586-2.3203 5.1211-4.5586 7.7188-6.7188l4-3.2812 8-6.3203 4-3.0781 6.5195-5.0781 8-6.2383 0.44531-0.52344c2.3984-1.8008 4.7617-3.6016 7.0781-5.4414 3.3984-2.6406 6.7617-5.2383 10-8l1.5586-1.2383 3.7617-3.0781c1.2383-1 2.4414-2.0391 3.6406-3.0781 2.3984-2.0391 4.7617-4 7.0391-6.3203 2.2812-2.3203 4-3.7188 5.8008-5.6016l0.83984-0.87891c1.1211-1.1211 2.1602-2.1992 3.1602-3.3203 1-1.1211 2.0391-2.2383 3-3.3984 1.6406-1.8789 3.1992-4 4.7188-5.7617 0.67969-0.83984 1.2812-1.6797 1.8789-2.5586l2.0391-2.8398c0.71875-1.0391 1.3984-2.1211 2.0781-3.1992s1.5586-2.5586 2.2812-4c0.71875-1.4414 1.4414-2.6016 2.1211-4 0.67969-1.3984 1-1.9609 1.4414-2.9609 0.83984-1.8008 1.6406-3.6797 2.3984-5.6016 0.39844-1.0391 0.80078-2.0781 1.1602-3.1602 0.60156-1.7188 1.1211-3.4805 1.6406-5.2812s0.80078-3.0391 1.1602-4.6406 0.67969-3.1211 0.96094-4.7617l0.35938-2.3984c0-0.87891 0.28125-1.8008 0.35937-2.7188 0-1.6016 0.35938-3.2383 0.48047-4.8789l0.003907-0.003906c2.2773-39.93-15.293-78.41-46.961-102.84-13.344-10.457-28.855-17.809-45.398-21.52-28.984-6.5469-59.367-2.082-85.242 12.523-25.875 14.609-45.395 38.316-54.758 66.516-3.4102 10.723-10.121 20.098-19.172 26.785-9.0469 6.6875-19.977 10.344-31.23 10.457h-12.199c-17.113-0.015625-33.219-8.1016-43.453-21.816s-13.402-31.453-8.5469-47.863c17-55.535 53.664-102.96 103.12-133.4 49.457-30.441 108.32-41.801 165.55-31.957 101.68 16.719 180.84 103.04 195.56 205 2.2773 15.141 2.7578 30.5 1.4414 45.758z"/>
</svg>
